HIERARCHY
ROOT newVegas:Hips
{
	OFFSET 0.000000 96.479958 0.000000
	CHANNELS 6 Xposition Yposition Zposition Xrotation Yrotation Zrotation
	JOINT newVegas:Pelvis
	{
		OFFSET 0.000000 0.000000 0.000000
		CHANNELS 3 Xrotation Yrotation Zrotation
		JOINT newVegas:LeftUpLeg
		{
			OFFSET 18.735201 -5.666702 -4.541200
			CHANNELS 3 Xrotation Yrotation Zrotation
			JOINT newVegas:LeftLeg
			{
				OFFSET -0.021200 -31.938179 0.493100
				CHANNELS 3 Xrotation Yrotation Zrotation
				JOINT newVegas:LeftFoot
				{
					OFFSET 0.021200 -31.938179 -4.336299
					CHANNELS 3 Xrotation Yrotation Zrotation
					JOINT newVegas:LeftToeBase
					{
						OFFSET 0.943001 -26.722000 15.023500
						CHANNELS 3 Xrotation Yrotation Zrotation
						End Site
						{
							OFFSET 0.000000 30.670183 0.000000
						}
					}
				}
				JOINT newVegas:Left_PantLeg
				{
					OFFSET 0.663870 -9.044666 -1.108900
					CHANNELS 3 Xrotation Yrotation Zrotation
					End Site
					{
						OFFSET 1.415995 20.635357 0.000000
					}
				}
			}
		}
		JOINT newVegas:RightUpLeg
		{
			OFFSET -18.735201 -5.666702 -4.541200
			CHANNELS 3 Xrotation Yrotation Zrotation
			JOINT newVegas:RightLeg
			{
				OFFSET 0.018946 -31.938133 0.493100
				CHANNELS 3 Xrotation Yrotation Zrotation
				JOINT newVegas:RightFoot
				{
					OFFSET -0.018946 -31.938126 -4.336299
					CHANNELS 3 Xrotation Yrotation Zrotation
					JOINT newVegas:RightToeBase
					{
						OFFSET -0.943001 -26.722004 15.023500
						CHANNELS 3 Xrotation Yrotation Zrotation
						End Site
						{
							OFFSET 0.000000 30.670187 0.000000
						}
					}
				}
				JOINT newVegas:Right_PantLeg
				{
					OFFSET -0.661674 -9.044716 -1.108900
					CHANNELS 3 Xrotation Yrotation Zrotation
					End Site
					{
						OFFSET -1.415958 20.635269 0.000000
					}
				}
			}
		}
	}
	JOINT newVegas:Spine
	{
		OFFSET 0.000000 10.199997 -0.299500
		CHANNELS 3 Xrotation Yrotation Zrotation
		JOINT newVegas:Spine1
		{
			OFFSET 0.000000 11.900002 -1.516600
			CHANNELS 3 Xrotation Yrotation Zrotation
			JOINT newVegas:Spine2
			{
				OFFSET 0.000000 13.600006 -2.842500
				CHANNELS 3 Xrotation Yrotation Zrotation
				JOINT newVegas:Neck
				{
					OFFSET 0.000000 9.624100 -2.890100
					CHANNELS 3 Xrotation Yrotation Zrotation
					JOINT newVegas:Head
					{
						OFFSET 0.000000 14.068802 -1.351900
						CHANNELS 3 Xrotation Yrotation Zrotation
						JOINT newVegas:Hair_Back
						{
							OFFSET 0.000000 3.231903 -17.524799
							CHANNELS 3 Xrotation Yrotation Zrotation
							End Site
							{
								OFFSET 0.000000 19.849884 0.000000
							}
						}
						JOINT newVegas:Hair_Front
						{
							OFFSET 0.000000 31.260406 4.573800
							CHANNELS 3 Xrotation Yrotation Zrotation
							JOINT newVegas:Hair_Front1
							{
								OFFSET 0.000000 2.284103 11.993300
								CHANNELS 3 Xrotation Yrotation Zrotation
								JOINT newVegas:Hair_Front2
								{
									OFFSET 0.000000 2.284103 11.993300
									CHANNELS 3 Xrotation Yrotation Zrotation
									End Site
									{
										OFFSET 0.000000 12.208862 0.000000
									}
								}
							}
						}
						JOINT newVegas:Jowel
						{
							OFFSET 0.000000 -7.458206 6.864100
							CHANNELS 3 Xrotation Yrotation Zrotation
							End Site
							{
								OFFSET 0.000000 19.849884 0.000000
							}
						}
					}
				}
				JOINT newVegas:LeftShoulder
				{
					OFFSET 15.263000 10.923401 -0.547700
					CHANNELS 3 Xrotation Yrotation Zrotation
					JOINT newVegas:LeftArm
					{
						OFFSET 25.438599 -2.830597 -13.032500
						CHANNELS 3 Xrotation Yrotation Zrotation
						JOINT newVegas:LeftForeArm
						{
							OFFSET 29.960503 0.000000 0.000000
							CHANNELS 3 Xrotation Yrotation Zrotation
							JOINT newVegas:LeftHand
							{
								OFFSET 27.849251 0.000000 0.000000
								CHANNELS 3 Xrotation Yrotation Zrotation
								JOINT newVegas:LeftHandThumb1
								{
									OFFSET 4.487587 -3.305161 6.305391
									CHANNELS 3 Xrotation Yrotation Zrotation
									JOINT newVegas:LeftHandThumb2
									{
										OFFSET 5.480453 -3.164139 3.164143
										CHANNELS 3 Xrotation Yrotation Zrotation
										JOINT newVegas:LeftHandThumb3
										{
											OFFSET 5.159721 -2.978973 2.978967
											CHANNELS 3 Xrotation Yrotation Zrotation
											End Site
											{
												OFFSET 2.494507 5.926697 1.738678
											}
										}
									}
								}
								JOINT newVegas:LeftHandIndex1
								{
									OFFSET 18.578728 -0.527832 5.208049
									CHANNELS 3 Xrotation Yrotation Zrotation
									JOINT newVegas:LeftHandIndex2
									{
										OFFSET 3.192009 0.000000 0.000000
										CHANNELS 3 Xrotation Yrotation Zrotation
										JOINT newVegas:LeftHandIndex3
										{
											OFFSET 3.835129 0.000000 0.000000
											CHANNELS 3 Xrotation Yrotation Zrotation
											End Site
											{
												OFFSET -0.034599 3.816971 0.371180
											}
										}
									}
								}
								JOINT newVegas:LeftHandMiddle1
								{
									OFFSET 18.476105 0.000000 0.000000
									CHANNELS 3 Xrotation Yrotation Zrotation
									JOINT newVegas:LeftHandMiddle2
									{
										OFFSET 3.324875 0.000000 0.000000
										CHANNELS 3 Xrotation Yrotation Zrotation
										JOINT newVegas:LeftHandMiddle3
										{
											OFFSET 4.596550 0.000000 0.000000
											CHANNELS 3 Xrotation Yrotation Zrotation
											End Site
											{
												OFFSET 0.057701 4.578827 0.399218
											}
										}
									}
								}
								JOINT newVegas:LeftHandRing1
								{
									OFFSET 17.732719 0.121887 -4.201567
									CHANNELS 3 Xrotation Yrotation Zrotation
									JOINT newVegas:LeftHandRing2
									{
										OFFSET 2.733170 0.000000 0.000000
										CHANNELS 3 Xrotation Yrotation Zrotation
										JOINT newVegas:LeftHandRing3
										{
											OFFSET 3.178268 0.000000 0.000000
											CHANNELS 3 Xrotation Yrotation Zrotation
											End Site
											{
												OFFSET 0.119102 3.170624 0.185394
											}
										}
									}
								}
								JOINT newVegas:LeftHandPinky1
								{
									OFFSET 15.989624 -0.606689 -7.535461
									CHANNELS 3 Xrotation Yrotation Zrotation
									JOINT newVegas:LeftHandPinky2
									{
										OFFSET 2.538986 0.000000 0.000000
										CHANNELS 3 Xrotation Yrotation Zrotation
										JOINT newVegas:LeftHandPinky3
										{
											OFFSET 2.593102 0.000000 0.000000
											CHANNELS 3 Xrotation Yrotation Zrotation
											End Site
											{
												OFFSET -0.150902 2.584198 0.152708
											}
										}
									}
								}
							}
							JOINT newVegas:Left_Sleeve
							{
								OFFSET 0.267448 -0.649796 0.577675
								CHANNELS 3 Xrotation Yrotation Zrotation
								End Site
								{
									OFFSET 0.000000 15.991241 0.000000
								}
							}
							JOINT newVegas:Left_CapeC
							{
								OFFSET 15.715958 -8.608795 -6.935905
								CHANNELS 3 Xrotation Yrotation Zrotation
								JOINT newVegas:Left_CapeC1
								{
									OFFSET 0.000000 -8.688499 0.000000
									CHANNELS 3 Xrotation Yrotation Zrotation
									End Site
									{
										OFFSET 0.000000 8.688499 0.000000
									}
								}
							}
						}
						JOINT newVegas:Left_CapeB
						{
							OFFSET 26.118385 -8.608795 -7.079235
							CHANNELS 3 Xrotation Yrotation Zrotation
							JOINT newVegas:Left_CapeB1
							{
								OFFSET 0.000000 -8.688499 0.000000
								CHANNELS 3 Xrotation Yrotation Zrotation
								End Site
								{
									OFFSET 0.000000 8.688499 0.000000
								}
							}
						}
						JOINT newVegas:Left_CapeA
						{
							OFFSET 5.115639 -8.608795 -10.395809
							CHANNELS 3 Xrotation Yrotation Zrotation
							JOINT newVegas:Left_CapeA1
							{
								OFFSET 0.000000 -8.688499 0.000000
								CHANNELS 3 Xrotation Yrotation Zrotation
								End Site
								{
									OFFSET 0.000000 8.688499 0.000000
								}
							}
						}
					}
				}
				JOINT newVegas:RightShoulder
				{
					OFFSET -15.263000 10.923401 -0.547700
					CHANNELS 3 Xrotation Yrotation Zrotation
					JOINT newVegas:RightArm
					{
						OFFSET -25.438599 -2.830597 -13.032500
						CHANNELS 3 Xrotation Yrotation Zrotation
						JOINT newVegas:RightForeArm
						{
							OFFSET -29.960503 0.000000 0.000000
							CHANNELS 3 Xrotation Yrotation Zrotation
							JOINT newVegas:RightHand
							{
								OFFSET -27.849251 0.000000 0.000000
								CHANNELS 3 Xrotation Yrotation Zrotation
								JOINT newVegas:RightHandThumb1
								{
									OFFSET -4.487587 -3.305161 6.305391
									CHANNELS 3 Xrotation Yrotation Zrotation
									JOINT newVegas:RightHandThumb2
									{
										OFFSET -5.480453 -3.164139 3.164143
										CHANNELS 3 Xrotation Yrotation Zrotation
										JOINT newVegas:RightHandThumb3
										{
											OFFSET -5.159721 -2.978973 2.978967
											CHANNELS 3 Xrotation Yrotation Zrotation
											End Site
											{
												OFFSET -2.494507 5.926697 1.738678
											}
										}
									}
								}
								JOINT newVegas:RightHandIndex1
								{
									OFFSET -18.578728 -0.527832 5.208049
									CHANNELS 3 Xrotation Yrotation Zrotation
									JOINT newVegas:RightHandIndex2
									{
										OFFSET -3.192009 0.000000 0.000000
										CHANNELS 3 Xrotation Yrotation Zrotation
										JOINT newVegas:RightHandIndex3
										{
											OFFSET -3.835129 0.000000 0.000000
											CHANNELS 3 Xrotation Yrotation Zrotation
											End Site
											{
												OFFSET 0.034599 3.816971 0.371180
											}
										}
									}
								}
								JOINT newVegas:RightHandMiddle1
								{
									OFFSET -18.476105 0.000000 0.000000
									CHANNELS 3 Xrotation Yrotation Zrotation
									JOINT newVegas:RightHandMiddle2
									{
										OFFSET -3.324875 0.000000 0.000000
										CHANNELS 3 Xrotation Yrotation Zrotation
										JOINT newVegas:RightHandMiddle3
										{
											OFFSET -4.596550 0.000000 0.000000
											CHANNELS 3 Xrotation Yrotation Zrotation
											End Site
											{
												OFFSET -0.057701 4.578827 0.399218
											}
										}
									}
								}
								JOINT newVegas:RightHandRing1
								{
									OFFSET -17.732719 0.121887 -4.201567
									CHANNELS 3 Xrotation Yrotation Zrotation
									JOINT newVegas:RightHandRing2
									{
										OFFSET -2.733170 0.000000 0.000000
										CHANNELS 3 Xrotation Yrotation Zrotation
										JOINT newVegas:RightHandRing3
										{
											OFFSET -3.178268 0.000000 0.000000
											CHANNELS 3 Xrotation Yrotation Zrotation
											End Site
											{
												OFFSET -0.119102 3.170624 0.185394
											}
										}
									}
								}
								JOINT newVegas:RightHandPinky1
								{
									OFFSET -15.989624 -0.606689 -7.535461
									CHANNELS 3 Xrotation Yrotation Zrotation
									JOINT newVegas:RightHandPinky2
									{
										OFFSET -2.538986 0.000000 0.000000
										CHANNELS 3 Xrotation Yrotation Zrotation
										JOINT newVegas:RightHandPinky3
										{
											OFFSET -2.593102 0.000000 0.000000
											CHANNELS 3 Xrotation Yrotation Zrotation
											End Site
											{
												OFFSET 0.150902 2.584198 0.152708
											}
										}
									}
								}
							}
							JOINT newVegas:Right_CapeC
							{
								OFFSET -15.715958 -8.608795 -6.935905
								CHANNELS 3 Xrotation Yrotation Zrotation
								JOINT newVegas:Right_CapeC1
								{
									OFFSET 0.000000 -8.688499 0.000000
									CHANNELS 3 Xrotation Yrotation Zrotation
									End Site
									{
										OFFSET 0.000000 8.688499 0.000000
									}
								}
							}
							JOINT newVegas:Right_Sleeve
							{
								OFFSET -0.267448 -0.649994 0.577675
								CHANNELS 3 Xrotation Yrotation Zrotation
								End Site
								{
									OFFSET 0.000000 15.991302 0.000000
								}
							}
						}
						JOINT newVegas:Right_CapeA
						{
							OFFSET -5.115540 -8.608795 -10.395824
							CHANNELS 3 Xrotation Yrotation Zrotation
							JOINT newVegas:Right_CapeA1
							{
								OFFSET 0.000000 -8.688499 0.000000
								CHANNELS 3 Xrotation Yrotation Zrotation
								End Site
								{
									OFFSET 0.000000 8.688499 0.000000
								}
							}
						}
						JOINT newVegas:Right_CapeB
						{
							OFFSET -26.118187 -8.608795 -7.079266
							CHANNELS 3 Xrotation Yrotation Zrotation
							JOINT newVegas:Right_CapeB1
							{
								OFFSET 0.000000 -8.688499 0.000000
								CHANNELS 3 Xrotation Yrotation Zrotation
								End Site
								{
									OFFSET 0.000000 8.688499 0.000000
								}
							}
						}
					}
				}
				JOINT newVegas:Left_Collar
				{
					OFFSET 18.625099 8.655502 8.828100
					CHANNELS 3 Xrotation Yrotation Zrotation
					JOINT newVegas:Left_Collar1
					{
						OFFSET 14.783401 10.540405 -1.259500
						CHANNELS 3 Xrotation Yrotation Zrotation
						End Site
						{
							OFFSET 0.000000 18.199875 0.000000
						}
					}
				}
				JOINT newVegas:Collar_Back
				{
					OFFSET 0.000000 15.630707 -20.132601
					CHANNELS 3 Xrotation Yrotation Zrotation
					End Site
					{
						OFFSET 0.000000 22.523010 0.000000
					}
				}
				JOINT newVegas:Left_Peck
				{
					OFFSET 17.239599 -5.132599 25.482599
					CHANNELS 3 Xrotation Yrotation Zrotation
					End Site
					{
						OFFSET 0.000000 22.523010 0.000000
					}
				}
				JOINT newVegas:Right_Peck
				{
					OFFSET -17.239599 -5.132202 25.482599
					CHANNELS 3 Xrotation Yrotation Zrotation
					End Site
					{
						OFFSET 0.000000 22.523010 0.000000
					}
				}
				JOINT newVegas:Right_Collar
				{
					OFFSET -18.625099 8.655792 8.828100
					CHANNELS 3 Xrotation Yrotation Zrotation
					JOINT newVegas:Right_Collar1
					{
						OFFSET -14.783401 10.539993 -1.259500
						CHANNELS 3 Xrotation Yrotation Zrotation
						End Site
						{
							OFFSET 0.000000 18.199631 0.000000
						}
					}
				}
			}
		}
		JOINT newVegas:Belly
		{
			OFFSET 0.000000 -6.540398 9.014299
			CHANNELS 3 Xrotation Yrotation Zrotation
			End Site
			{
				OFFSET 0.000000 11.566666 0.000000
			}
		}
	}
	JOINT newVegas:ElvisFacialAnim_Joint
	{
		OFFSET 1.000000 -95.330101 -8.825800
		CHANNELS 3 Xrotation Yrotation Zrotation
		End Site
		{
			OFFSET 0.000000 35.315800 0.000000
		}
	}
}
MOTION
Frames: 4
Frame Time: 0.033333
-3.523017 80.688385 117.951233 -7.525849 -5.267034 3.763991 0.000001 0.000000 -0.000000 8.379578 16.336612 3.378197 56.882741 -16.422707 -5.919739 -30.210241 -6.297320 12.570623 -0.000000 0.000000 -0.000000 -0.000002 -0.000001 0.000000 -53.129726 8.206893 -2.811119 47.116499 14.103768 -8.188815 11.961207 0.977327 15.314575 -0.000000 -0.000001 -0.000000 0.000000 -0.000000 -0.000001 13.279292 -0.692571 26.152087 1.082493 -7.952347 2.975770 -1.737380 -6.818520 3.731093 1.118726 2.308162 -2.609506 1.118719 2.308166 -2.609525 -0.000000 0.000002 -0.000000 1.118722 2.308175 -2.609538 1.118790 2.308140 -2.609516 -0.000001 0.000001 -0.000000 -0.000000 0.000002 0.000001 8.028490 -28.482184 -5.803560 86.991304 -23.100610 67.538222 234.443948 -189.049691 208.278846 -127.119779 20.779696 30.772007 17.551564 -5.699218 -12.932294 10.850497 26.127746 8.644818 0.000001 -0.000000 -0.000003 13.980878 1.201558 -55.004367 0.370830 1.161743 -65.441880 -0.000002 0.000002 -0.000002 7.504697 1.174471 -63.778510 1.807815 1.475659 -64.567923 -0.000002 -0.000002 0.000003 8.574286 2.179110 -75.148986 -0.207631 1.009304 -57.855042 -0.000001 0.000001 0.000001 10.030123 13.637046 -84.750244 0.877049 0.062302 -64.595510 0.000000 -0.000002 0.000001 -0.000001 0.000003 -0.000001 -0.000001 0.000003 -0.000001 -0.000002 0.000003 -0.000000 0.000000 0.000001 0.000000 0.000000 0.000000 0.000000 0.000000 0.000001 0.000000 0.000000 -0.000000 0.000001 1.758575 -4.515170 22.295983 49.363710 -12.156243 52.571587 40.125008 48.172966 -31.184018 -8.893590 2.672236 24.369517 15.788541 -2.734484 -17.205861 -2.198321 -31.113574 7.361293 -0.000000 -0.000000 -0.000001 2.363640 -3.662306 8.486751 -2.152929 -2.482156 18.672371 0.000001 -0.000002 -0.000001 -1.961675 -5.719051 13.663076 0.291292 -5.119392 26.988354 0.000000 0.000001 -0.000000 -3.272552 -8.567648 11.767202 4.019261 -4.056348 33.261799 -0.000000 0.000001 -0.000000 -6.471486 -11.358179 23.259805 10.726362 -2.566111 34.824375 -0.000000 0.000001 0.000001 -0.000001 0.000001 0.000001 0.000001 0.000001 -0.000001 -0.000001 0.000001 0.000001 -0.000001 0.000003 0.000002 -0.000001 0.000003 0.000002 -0.000001 0.000003 0.000002 -0.000001 0.000003 0.000002 0.000001 0.000001 0.000002 0.000001 0.000001 0.000002 0.000001 0.000001 0.000002 0.000001 0.000001 0.000002 0.000001 0.000001 0.000002 0.000001 0.000001 0.000002 0.000001 0.000001 0.000002 -0.000000 0.000001 -0.000000 0.000001 0.000000 -0.000000 
-4.360500 81.987320 119.908752 -12.981749 0.371209 5.013558 -0.000000 0.000000 0.000000 14.168222 15.387373 6.399889 54.291309 -12.201686 -5.147682 -24.885072 -2.407315 2.579383 -0.000001 0.000000 -0.000000 0.000005 -0.000001 0.000002 -46.299445 5.976013 -6.616399 53.612180 11.971319 -8.884311 5.279977 -0.033568 13.716443 -0.000000 -0.000000 0.000000 -0.000000 0.000000 -0.000002 15.545225 0.414249 22.772752 -0.413983 -7.402020 3.504875 -2.327201 -6.232484 4.307804 1.757956 1.515357 -2.949638 1.757969 1.515360 -2.949646 -0.000000 0.000000 0.000002 1.757965 1.515382 -2.949643 1.757951 1.515352 -2.949639 -0.000000 -0.000000 0.000001 -0.000000 0.000000 0.000002 2.079588 -20.682539 0.494393 4.459118 -51.024658 0.708841 204.967953 -166.701927 184.426446 -34.165139 32.846578 6.065607 17.551564 -5.699221 -12.932301 10.850495 26.127741 8.644822 0.000001 -0.000002 -0.000003 13.980879 1.201561 -55.004371 0.370831 1.161738 -65.441880 -0.000001 -0.000003 -0.000001 7.504700 1.174475 -63.778503 1.807814 1.475654 -64.567923 -0.000000 0.000004 -0.000004 8.574291 2.179112 -75.148986 -0.207631 1.009303 -57.855042 -0.000000 0.000001 -0.000000 10.030122 13.637046 -84.750244 0.877047 0.062300 -64.595503 -0.000000 -0.000003 0.000001 0.000000 0.000000 0.000000 0.000000 0.000000 0.000000 -0.000000 0.000001 0.000000 0.000004 0.000000 -0.000000 0.000004 0.000000 -0.000000 0.000004 0.000000 -0.000000 0.000002 0.000000 -0.000000 1.291592 -0.993148 23.589517 43.537648 -14.840804 47.788590 20.400969 44.508129 -10.377781 -10.668364 7.838287 27.074694 15.788541 -2.734482 -17.205892 -2.198327 -31.113568 7.361296 0.000002 -0.000003 -0.000003 2.363636 -3.662302 8.486747 -2.152934 -2.482143 18.672359 0.000000 -0.000001 -0.000001 -1.961678 -5.719053 13.663098 0.291293 -5.119384 26.988360 0.000001 -0.000001 0.000000 -3.272555 -8.567625 11.767195 4.019250 -4.056359 33.261799 -0.000000 -0.000001 -0.000000 -6.471493 -11.358180 23.259793 10.726360 -2.566101 34.824379 0.000000 0.000005 -0.000001 -0.000001 0.000000 0.000000 0.000000 -0.000000 0.000000 -0.000001 0.000000 -0.000001 0.000000 -0.000001 -0.000001 0.000000 0.000000 -0.000001 0.000000 -0.000001 -0.000001 0.000000 -0.000000 -0.000001 0.000001 -0.000001 0.000001 0.000001 -0.000001 0.000001 0.000001 -0.000001 0.000001 0.000001 -0.000001 0.000001 0.000001 -0.000001 0.000001 0.000001 -0.000001 0.000001 0.000001 -0.000001 0.000001 -0.000000 0.000000 0.000001 -0.000000 0.000000 0.000000 
-5.168397 83.142227 121.969955 -13.154164 6.080701 6.460720 0.000001 -0.000000 0.000000 16.304003 14.370078 9.490511 48.808836 -7.366261 -4.952740 -20.030882 0.614411 -7.624656 -0.000000 0.000001 -0.000000 -0.000002 -0.000001 -0.000000 -43.812378 2.775603 -10.348627 57.149234 11.127099 -9.284696 -0.349005 -1.509546 12.271228 -0.000000 -0.000000 0.000000 0.000000 0.000002 -0.000001 12.462247 0.026558 17.776636 -1.266699 -6.675921 4.776090 -2.413093 -5.706871 5.377757 2.511524 0.664959 -2.936060 2.511523 0.664962 -2.936072 -0.000000 0.000000 0.000001 2.511602 0.664958 -2.936074 2.511522 0.664959 -2.936065 -0.000000 0.000000 0.000001 -0.000000 0.000000 0.000001 -0.295041 -14.838962 2.217123 -9.680429 -4.101071 -1.918279 194.215200 -156.030166 176.736896 -20.192626 37.813980 14.438243 17.551563 -5.699222 -12.932292 10.850492 26.127741 8.644822 -0.000000 0.000000 0.000001 13.980876 1.201557 -55.004364 0.370829 1.161738 -65.441880 0.000000 -0.000000 0.000000 7.504696 1.174469 -63.778496 1.807818 1.475654 -64.567923 0.000000 0.000000 -0.000000 8.574283 2.179108 -75.148986 -0.207633 1.009301 -57.855042 -0.000000 0.000001 0.000000 10.030119 13.637044 -84.750237 0.877049 0.062301 -64.595510 0.000001 -0.000000 0.000002 0.000002 -0.000001 -0.000001 0.000002 -0.000001 -0.000001 0.000001 -0.000001 -0.000001 -0.000001 -0.000002 0.000003 -0.000001 -0.000003 0.000003 -0.000001 -0.000002 0.000003 -0.000001 -0.000003 0.000003 0.904392 1.125097 25.500405 38.424541 -17.334810 41.029028 10.862144 39.014898 -0.987928 -3.488171 1.061748 5.599544 15.788532 -2.734469 -17.205868 -2.198333 -31.113574 7.361250 0.000003 -0.000002 -0.000003 2.363657 -3.662289 8.486759 -2.152948 -2.482159 18.672346 0.000002 -0.000001 -0.000001 -1.961670 -5.719038 13.663089 0.291288 -5.119394 26.988369 0.000001 0.000000 0.000000 -3.272550 -8.567617 11.767199 4.019248 -4.056364 33.261765 -0.000000 -0.000003 -0.000001 -6.471480 -11.358172 23.259794 10.726374 -2.566090 34.824396 0.000001 0.000002 -0.000001 0.000000 -0.000000 -0.000001 0.000001 0.000000 0.000001 0.000000 -0.000000 -0.000002 0.000001 0.000002 -0.000001 0.000001 0.000003 -0.000000 0.000001 0.000002 -0.000001 0.000001 0.000003 -0.000001 0.000000 -0.000000 -0.000001 0.000000 -0.000000 -0.000001 0.000000 -0.000000 -0.000001 0.000000 -0.000000 -0.000001 0.000000 -0.000000 -0.000001 0.000000 -0.000000 -0.000001 0.000000 -0.000000 -0.000001 -0.000000 -0.000000 0.000001 0.000001 -0.000000 0.000000 
-5.909132 83.989510 123.682785 -10.650242 11.610470 7.183739 0.000001 -0.000000 -0.000000 16.680024 14.279987 11.490731 43.296873 -2.228991 -4.880430 -17.951516 1.943196 -13.240241 -0.000001 -0.000001 0.000002 -0.000002 0.000000 -0.000000 -44.144735 -0.459842 -13.491802 58.629367 9.613938 -9.478148 -4.384129 -1.885962 11.257377 -0.000000 -0.000000 -0.000000 -0.000001 0.000002 -0.000000 8.254552 -0.324089 13.524462 -1.967792 -5.749263 5.316355 -2.572617 -5.064521 5.683166 2.687018 -0.344830 -2.448133 2.687023 -0.344831 -2.448124 -0.000000 -0.000000 0.000000 2.687032 -0.344797 -2.448131 2.687011 -0.344845 -2.448125 -0.000000 0.000000 -0.000000 -0.000000 -0.000000 0.000000 -2.273182 -4.401106 5.079372 -18.413924 25.936445 8.173257 185.251314 -147.030395 165.394492 -19.532562 42.741271 21.876208 17.551563 -5.699223 -12.932295 10.850495 26.127741 8.644821 0.000001 -0.000002 -0.000005 13.980876 1.201558 -55.004364 0.370832 1.161734 -65.441880 -0.000004 -0.000001 -0.000000 7.504693 1.174475 -63.778503 1.807820 1.475657 -64.567923 -0.000000 0.000000 -0.000000 8.574282 2.179111 -75.148986 -0.207626 1.009302 -57.855042 0.000001 0.000006 0.000002 10.030116 13.637050 -84.750251 0.877049 0.062302 -64.595510 0.000001 -0.000005 0.000001 -0.000001 0.000000 -0.000000 -0.000001 0.000000 -0.000000 -0.000001 0.000000 -0.000000 -0.000001 0.000000 -0.000001 -0.000000 -0.000000 -0.000003 -0.000001 0.000000 -0.000001 -0.000002 0.000001 -0.000000 0.628302 2.830258 27.501297 31.276659 -20.408902 34.445266 13.259693 35.062213 -7.469999 -6.983850 -10.638605 5.534042 15.788534 -2.734485 -17.205882 -2.198331 -31.113574 7.361276 -0.000000 -0.000002 -0.000001 2.363649 -3.662303 8.486757 -2.152940 -2.482153 18.672352 -0.000002 0.000001 0.000001 -1.961670 -5.719064 13.663084 0.291282 -5.119376 26.988354 0.000001 0.000001 0.000002 -3.272546 -8.567633 11.767225 4.019252 -4.056352 33.261788 -0.000000 0.000002 0.000000 -6.471477 -11.358178 23.259835 10.726352 -2.566102 34.824362 0.000000 -0.000002 -0.000002 -0.000003 -0.000000 0.000000 -0.000003 -0.000000 0.000000 -0.000003 -0.000000 0.000000 -0.000002 -0.000002 -0.000000 -0.000002 -0.000001 -0.000000 -0.000002 -0.000002 -0.000000 -0.000002 -0.000001 0.000000 0.000000 -0.000000 -0.000002 0.000000 -0.000000 -0.000002 0.000000 -0.000000 -0.000002 0.000000 -0.000000 -0.000002 0.000000 -0.000000 -0.000002 0.000000 -0.000000 -0.000002 0.000000 -0.000000 -0.000002 -0.000000 0.000000 0.000000 0.000001 -0.000000 -0.000000 
